<?xml version="1.0" standalone="no"?>
<!DOCTYPE svg PUBLIC "-//W3C//DTD SVG 20010904//EN"
 "http://www.w3.org/TR/2001/REC-SVG-20010904/DTD/svg10.dtd">
<svg version="1.0" xmlns="http://www.w3.org/2000/svg"
 width="331.000000pt" height="373.000000pt" viewBox="0 0 331.000000 373.000000"
 preserveAspectRatio="xMidYMid meet">

<g transform="translate(0.000000,373.000000) scale(0.100000,-0.100000)"
fill="#4074E7" stroke="none">
<path d="M1465 3588 c-187 -16 -407 -74 -547 -144 -79 -40 -171 -126 -198
-186 -25 -56 -26 -149 -1 -203 10 -22 39 -67 65 -99 l48 -58 -25 -56 c-14 -32
-31 -79 -37 -107 -18 -75 -15 -249 4 -325 43 -164 78 -262 106 -293 l28 -32
124 -5 c145 -6 146 -6 99 -106 -17 -37 -31 -76 -31 -88 0 -31 68 -93 126 -115
27 -11 74 -22 105 -26 55 -7 56 -8 81 -58 59 -117 72 -200 39 -252 -20 -34
-101 -76 -379 -199 -208 -92 -225 -97 -246 -65 -31 48 -100 487 -85 543 4 15
24 48 43 74 67 85 69 156 11 268 -20 37 -29 64 -22 64 22 0 -17 19 -73 36 -98
29 -167 17 -301 -49 -65 -32 -131 -72 -148 -89 -28 -29 -31 -37 -31 -98 0 -79
27 -187 82 -330 22 -58 56 -145 75 -195 20 -49 57 -185 84 -301 54 -232 69
-282 99 -323 35 -50 82 -65 205 -64 146 1 268 24 451 84 83 27 156 49 162 49
26 0 71 -269 101 -608 6 -62 15 -121 21 -132 13 -23 45 -27 54 -5 3 8 15 14
27 12 31 -3 41 39 34 143 -8 107 -51 414 -71 502 -14 63 -44 118 -64 118 -5 0
-22 13 -38 30 -17 16 -39 30 -49 30 -10 0 -63 -16 -118 -34 -55 -19 -101 -33
-103 -31 -1 1 3 23 10 48 13 51 5 87 -45 198 l-25 56 164 76 c146 67 164 73
164 55 0 -15 4 -18 18 -13 9 4 60 8 112 9 148 3 248 48 380 173 l61 58 -7 48
c-9 65 -27 62 -123 -21 -105 -91 -186 -133 -265 -139 l-61 -5 3 44 c4 49 -20
153 -49 209 l-19 38 48 6 c44 6 95 20 215 59 l47 15 24 -47 c45 -89 40 -87
308 -101 215 -11 220 -13 288 -155 46 -97 151 -371 164 -433 7 -29 5 -30 -83
-71 -49 -23 -93 -42 -98 -42 -4 0 -25 54 -46 120 -21 66 -47 130 -58 143 -11
12 -25 30 -32 41 -13 17 -15 17 -63 1 -57 -19 -89 -46 -115 -96 -25 -49 -16
-122 14 -118 28 3 39 -2 33 -16 -10 -26 6 -77 25 -82 17 -5 16 -8 -6 -38 -27
-34 -33 -83 -13 -103 15 -15 53 -16 78 -2 14 7 10 -5 -16 -48 -26 -42 -34 -66
-32 -92 3 -31 6 -35 31 -35 33 1 34 -12 7 -65 -25 -48 -27 -108 -4 -117 36
-14 81 23 118 98 20 39 36 80 36 90 0 11 4 19 8 19 5 0 21 -55 37 -122 44
-194 53 -218 75 -218 32 0 60 31 60 67 0 43 -23 151 -65 304 -38 135 -41 159
-24 159 6 0 49 18 95 39 l83 39 92 -281 c50 -155 100 -299 110 -320 22 -43 49
-48 72 -14 13 20 13 29 -2 87 -25 94 -264 824 -273 830 -3 3 -28 64 -53 135
-91 253 -145 343 -229 388 -36 19 -62 22 -226 27 -102 3 -191 9 -198 13 -6 5
-19 21 -27 37 -14 27 -14 28 28 55 65 44 190 174 228 239 31 53 39 60 81 71
96 24 183 109 240 234 52 113 56 286 12 461 -46 183 -198 443 -312 536 -183
150 -428 216 -707 192z m275 -188 c95 -15 186 -47 262 -91 308 -180 489 -691
329 -929 -51 -75 -150 -124 -178 -87 -6 6 -13 50 -17 96 -13 167 -65 208 -296
235 -146 17 -203 33 -447 127 -87 33 -196 74 -243 91 -108 39 -255 112 -286
143 -49 49 -23 169 50 233 87 76 299 157 466 177 132 16 276 18 360 5z m-684
-641 c38 -17 126 -53 196 -80 70 -27 154 -62 185 -79 76 -39 216 -76 381 -100
207 -31 222 -42 222 -164 0 -41 6 -74 19 -98 18 -37 18 -37 -5 -87 -47 -98
-225 -231 -385 -288 -63 -22 -96 -27 -217 -31 -153 -5 -217 5 -248 39 -15 17
-14 22 15 80 36 73 38 96 11 148 -26 52 -80 74 -185 75 l-79 1 -35 110 c-33
103 -35 119 -35 250 -1 132 1 143 26 198 32 68 39 69 134 26z m-343 -738 c39
-78 36 -107 -19 -187 -67 -98 -68 -103 -49 -261 40 -329 67 -435 124 -487 29
-26 96 -23 174 9 35 14 69 25 76 25 17 0 81 -144 81 -181 0 -40 -24 -95 -47
-107 -10 -6 -45 -13 -78 -16 -33 -4 -78 -10 -100 -13 -38 -5 -39 -5 -24 13 51
58 73 154 35 154 -38 0 -123 -120 -110 -154 5 -14 -2 -16 -47 -15 -51 1 -52 1
-21 10 32 9 92 77 92 104 0 25 -29 39 -55 27 -21 -10 -24 -8 -27 11 -2 13 -11
23 -24 25 -12 2 -26 14 -32 28 -8 16 -20 24 -37 24 -33 0 -42 21 -89 209 -20
80 -68 224 -106 320 -84 216 -100 270 -100 336 0 64 13 77 130 132 112 54 107
52 170 50 l55 -2 28 -54z m1601 -1157 c3 -8 2 -12 -4 -9 -6 3 -10 10 -10 16 0
14 7 11 14 -7z m-1654 -30 c0 -8 -5 -12 -10 -9 -6 4 -8 11 -5 16 9 14 15 11
15 -7z m1693 -143 c-9 -12 -25 20 -18 36 7 16 9 15 15 -7 4 -14 5 -27 3 -29z"/>
<path d="M941 943 c-28 -23 -53 -93 -39 -110 18 -22 45 -14 73 18 20 24 25 41
23 68 -4 42 -24 51 -57 24z"/>
<path d="M902 1802 c-15 -10 -81 -171 -89 -217 -5 -30 -2 -36 21 -46 23 -11
30 -10 47 7 21 21 89 191 89 222 0 34 -37 53 -68 34z"/>
<path d="M1053 1723 c-7 -19 11 -93 35 -143 13 -26 24 -36 46 -38 47 -6 50 8
20 107 l-27 91 -34 0 c-22 0 -36 -6 -40 -17z"/>
</g>
</svg>
