<svg width="33" height="33" viewBox="0 0 33 33" fill="none" xmlns="http://www.w3.org/2000/svg">
<g clip-path="url(#clip0_831_546)">
<path d="M16.5 0C7.38634 0 0 7.38411 0 16.5C0 25.6114 7.38634 32.9989 16.5 32.9989C25.6137 32.9989 33 25.6114 33 16.5C32.9989 7.38411 25.6125 0 16.5 0ZM16.5 30.3074C8.87121 30.3074 2.68929 24.1266 2.68929 16.4989C2.68929 8.87009 8.87121 2.68706 16.5 2.68706C24.1266 2.68706 30.3085 8.87121 30.3085 16.4989C30.3085 24.1266 24.1266 30.3074 16.5 30.3074Z" fill="#B7B7B7"/>
<path d="M16.0721 21.6049C14.5772 21.6049 13.5146 22.6674 13.5146 24.2193C13.5146 25.712 14.5493 26.8326 16.0721 26.8326C17.6519 26.8326 18.6575 25.712 18.6575 24.2193C18.6273 22.6674 17.6207 21.6049 16.0721 21.6049Z" fill="#B7B7B7"/>
<path d="M16.4709 6.80647C14.433 6.80647 12.7392 7.37964 11.6744 7.98297L12.6521 11.1158C13.3984 10.5996 14.5481 10.2533 15.4955 10.2533C16.9312 10.2834 17.5949 10.9728 17.5949 11.9772C17.5949 12.9269 16.8463 13.8733 15.9257 14.995C14.6341 16.519 14.1447 18.0128 14.2319 19.4776L14.2598 20.225H18.0809V19.7077C18.053 18.4139 18.5133 17.2921 19.5457 16.1157C20.6395 14.909 22.016 13.4722 22.016 11.2879C22.016 8.90249 20.2663 6.80647 16.4709 6.80647Z" fill="#B7B7B7"/>
</g>
<defs>
<clipPath id="clip0_831_546">
<rect width="33" height="33" fill="white"/>
</clipPath>
</defs>
</svg>
