<svg width="20" height="20" viewBox="0 0 20 20" fill="none" xmlns="http://www.w3.org/2000/svg">
<g clip-path="url(#clip0_786_277)">
<path d="M10 14.1666V9.16663" stroke="#D0D0D0" stroke-width="2" stroke-linecap="round"/>
<path d="M10 5.5C10.8136 5.5 11 6.20643 11 6.66667C11 7.1269 10.4602 7.5 10 7.5C9.53976 7.5 9 7.1269 9 6.66667C9 6.20643 9.18642 5.5 10 5.5Z" fill="#D0D0D0" stroke="#D0D0D0" stroke-width="0"/>
<path d="M1.6665 9.99996C1.6665 6.07158 1.6665 4.1074 2.8869 2.88702C4.10728 1.66663 6.07146 1.66663 9.99984 1.66663C13.9282 1.66663 15.8924 1.66663 17.1128 2.88702C18.3332 4.1074 18.3332 6.07158 18.3332 9.99996C18.3332 13.9283 18.3332 15.8925 17.1128 17.1129C15.8924 18.3333 13.9282 18.3333 9.99984 18.3333C6.07146 18.3333 4.10728 18.3333 2.8869 17.1129C1.6665 15.8925 1.6665 13.9283 1.6665 9.99996Z" stroke="#D0D0D0" stroke-width="2"/>
</g>
<defs>
<clipPath id="clip0_786_277">
<rect width="20" height="20" fill="white"/>
</clipPath>
</defs>
</svg>
