<svg width="35" height="35" viewBox="0 0 35 35" fill="none" xmlns="http://www.w3.org/2000/svg">
<g clip-path="url(#clip0_831_876)">
<path d="M17.5 21.875C19.9162 21.875 21.875 19.9162 21.875 17.5C21.875 15.0838 19.9162 13.125 17.5 13.125C15.0838 13.125 13.125 15.0838 13.125 17.5C13.125 19.9162 15.0838 21.875 17.5 21.875Z" fill="#B7B7B7"/>
<path fill-rule="evenodd" clip-rule="evenodd" d="M4.55647 15.3125C5.47855 9.81638 9.81638 5.47855 15.3125 4.55647V0H19.6875V4.55647C25.1836 5.47855 29.5214 9.81638 30.4434 15.3125H35V19.6875H30.4434C29.5214 25.1836 25.1836 29.5214 19.6875 30.4434V35H15.3125V30.4434C9.81638 29.5214 5.47855 25.1836 4.55647 19.6875H0V15.3125H4.55647ZM8.75 17.5C8.75 12.6675 12.6675 8.75 17.5 8.75C22.3324 8.75 26.25 12.6675 26.25 17.5C26.25 22.3324 22.3324 26.25 17.5 26.25C12.6675 26.25 8.75 22.3324 8.75 17.5Z" fill="#B7B7B7"/>
</g>
<defs>
<clipPath id="clip0_831_876">
<rect width="35" height="35" fill="white"/>
</clipPath>
</defs>
</svg>
