<svg width="23" height="23" viewBox="0 0 23 23" fill="none" xmlns="http://www.w3.org/2000/svg">
<path d="M0.434193 20.5646L0.0419612 20.4862L0.434194 20.5646L1.05081 17.4815C1.15732 16.949 1.41909 16.4599 1.80313 16.0759L16.6732 1.20575C17.7476 0.131416 19.4894 0.131419 20.5638 1.20575L21.7942 2.43627L21.7942 2.43628C22.8686 3.51061 22.8686 5.25242 21.7942 6.32674L22.0771 6.60959L21.7942 6.32675L6.92415 21.1969C6.5401 21.5809 6.05098 21.8427 5.51846 21.9492L5.51842 21.9492L2.43535 22.5658C1.24537 22.8038 0.196196 21.7546 0.434193 20.5646ZM17.5929 2.12541L17.5929 2.12544L14.787 4.93149L14.5041 5.21432L14.787 5.49716L17.5028 8.21309L17.7856 8.49594L18.0685 8.21309L20.8745 5.40708C20.8745 5.40707 20.8745 5.40706 20.8745 5.40705C21.441 4.84065 21.441 3.92234 20.8745 3.35595L19.6441 2.12545L19.6441 2.12541C19.0776 1.55907 18.1594 1.55907 17.5929 2.12541ZM13.8672 6.41687L13.5843 6.13403L13.3015 6.41688L2.72283 16.9956C2.52036 17.198 2.38236 17.4559 2.32621 17.7367L1.70959 20.8197L1.59192 21.408L2.18027 21.2904L5.26331 20.6737C5.54403 20.6176 5.80193 20.4797 6.00445 20.2772L16.5831 9.69847L16.866 9.41563L16.5831 9.13279L13.8672 6.41687Z" fill="#001122" stroke="#001122" stroke-width="0.8"/>
</svg>
