<?xml version="1.0" encoding="UTF-8"?>
<svg id="Capa_2" data-name="Capa 2" xmlns="http://www.w3.org/2000/svg" viewBox="0 0 149.85 307.89">
  <defs>
    <style>
      .cls-1, .cls-2, .cls-3 {
        fill: none;
        stroke: #346cb4;
        stroke-miterlimit: 10;
      }

      .cls-2 {
        stroke-width: 2px;
      }

      .cls-3 {
        stroke-width: 3px;
      }
    </style>
  </defs>
  <g id="Capa_1-2" data-name="Capa 1">
    <path class="cls-3" d="m149.85,13.29h0c-15,0-28.46,6.92-37.36,17.73-2.17-.35-4.4-.53-6.67-.53-23.16,0-41.94,18.78-41.94,41.94,0,7.49,1.97,14.52,5.41,20.6-16.32,6.92-27.77,23.09-27.77,41.93,0,1.34.07,2.66.18,3.97-15.87,7.11-26.94,23.04-26.94,41.56,0,25.14,20.38,45.53,45.53,45.53,1.26,0,2.5-.06,3.74-.17,1.74,21.56,19.78,38.52,41.79,38.52.17,0,.33-.01.5-.01,7.86,16.14,24.45,27.33,43.53,27.33h0"/>
    <path class="cls-2" d="m148.29,7.1h0c-15.07,0-30.14,5.38-39.07,16.6-2.18-.36-4.42-.55-6.7-.55-23.27,0-47.73,21.32-47.73,45.35,0,7.77.98,15.06,4.44,21.38-15.22,9.51-23.45,21.49-25.38,40.39-.14,1.38.07,2.76.18,4.12-15.94,7.38-27.52,27.76-27.52,46.98,0,26.09,23.02,52.13,48.28,52.13,1.26,0,2.51-.07,3.75-.17,1.75,22.37,21.04,38.57,43.15,38.57.17,0,.34-.01.5-.01,7.9,16.75,27.3,28.34,46.47,28.34h0"/>
    <path class="cls-1" d="m146.8.5h0c-15.3,0-30.42,4.74-39.49,17.28-2.22-.4-4.5-.78-6.81-.62-23.83,1.64-42.89,15.6-50.47,41.05-2.53,8.52-.94,19.55,2.64,28.55-11.33,6.75-23.64,17.44-25.12,40.03-.12,1.81.12,3.14.19,4.61C11.54,139.65.5,160.62.5,182.12c0,29.18,25.08,56.9,50.73,56.9,1.28,0,1.62.18,2.87.06,1.78,25.03,22.23,38.31,44.68,38.31.17,0,.34-.01.51-.01,8.02,18.73,29.32,30.01,48.78,30.01h0"/>
  </g>
</svg>